<svg width="17" height="20" viewBox="0 0 17 20" fill="none" xmlns="http://www.w3.org/2000/svg">
<path fill-rule="evenodd" clip-rule="evenodd" d="M13.7204 3.74463C13.888 4.23424 13.5334 4.71961 13.0225 4.8023C12.5117 4.88499 12.0411 4.52942 11.8318 4.05613C11.5734 3.47158 11.1641 2.95958 10.6388 2.57677C9.85857 2.00817 8.88541 1.77056 7.93092 1.91559C6.97643 2.06063 6.11778 2.57659 5.54165 3.35129C5.15378 3.87286 4.91507 4.48332 4.84193 5.11825C4.82929 5.22792 4.80371 5.336 4.76631 5.43889V6.68236H13.4089C15.3715 6.68236 16.9626 8.27341 16.9626 10.2361V16.4464C16.9626 18.409 15.3715 20.0001 13.4089 20.0001H3.55372C1.59106 20.0001 0 18.409 0 16.4464V10.2361C0 8.48134 1.27179 7.02365 2.94388 6.73448V5.20651C2.94388 5.17907 2.94923 5.15287 2.95895 5.12891C3.03591 4.08878 3.4059 3.08282 4.0379 2.23299C4.90875 1.06199 6.20664 0.282092 7.6494 0.0628632C9.09215 -0.156366 10.5631 0.202796 11.7425 1.06226C12.6676 1.73644 13.3546 2.67569 13.7204 3.74463ZM8.50473 11.4025C8.01438 11.4025 7.61688 11.8 7.61688 12.2903V14.4866C7.61688 14.9769 8.01438 15.3745 8.50473 15.3745C8.99507 15.3745 9.39258 14.9769 9.39258 14.4866V12.2903C9.39258 11.8 8.99507 11.4025 8.50473 11.4025Z" fill="#D8F336"/>
</svg>
