<svg width="17" height="20" viewBox="0 0 17 20" fill="none" xmlns="http://www.w3.org/2000/svg">
<path fill-rule="evenodd" clip-rule="evenodd" d="M0 4.54333C0 2.03412 2.03412 0 4.54333 0H10.1172V3.27869C10.1172 5.42574 11.8577 7.16628 14.0048 7.16628H16.8619C16.8868 7.16628 16.9072 7.14687 16.9087 7.12236V15.4567C16.9087 17.9659 14.8745 20 12.3653 20H4.54333C2.03412 20 0 17.9659 0 15.4567V4.54333ZM5.03501 8.47759C4.60819 8.47759 4.26218 8.8236 4.26218 9.25042C4.26218 9.67725 4.60819 10.0233 5.03502 10.0233H8.40738C8.8342 10.0233 9.18021 9.67725 9.18021 9.25042C9.18021 8.8236 8.8342 8.47759 8.40738 8.47759H5.03501ZM4.26218 14.1687C4.26218 13.7419 4.60819 13.3959 5.03501 13.3959H10.4683C10.8951 13.3959 11.2411 13.7419 11.2411 14.1687C11.2411 14.5955 10.8951 14.9415 10.4683 14.9415H5.03501C4.60819 14.9415 4.26218 14.5955 4.26218 14.1687ZM12.0842 0.726561C12.0842 0.735951 12.0842 0.74529 12.0842 0.754569V3.04514C12.0842 3.36314 12.1291 3.68373 12.2673 3.97015C12.5087 4.47061 12.7885 4.72515 13.2385 4.9418C13.4316 5.0348 13.6463 5.07139 13.8607 5.07139H16.3293C16.3404 5.07139 16.3516 5.07143 16.3628 5.07146C16.5044 5.07189 16.6511 5.07234 16.7743 5.00458C16.8821 4.94531 16.9183 4.85627 16.9192 4.73188C16.9205 4.53941 16.8148 4.36438 16.6829 4.22424L13.0486 0.364169C12.847 0.149972 12.542 -0.10472 12.2936 0.0530079C12.0835 0.186439 12.0839 0.474705 12.0842 0.726561Z" fill="#D8F336"/>
</svg>
