<svg width="18" height="20" viewBox="0 0 18 20" fill="none" xmlns="http://www.w3.org/2000/svg">
<path d="M13.1912 0C16.2802 0 18.0002 1.78 18.0002 4.83V15.16C18.0002 18.26 16.2802 20 13.1912 20H4.81024C1.77024 20 0.000244141 18.26 0.000244141 15.16V4.83C0.000244141 1.78 1.77024 0 4.81024 0H13.1912ZM5.08024 13.74C4.78024 13.71 4.49024 13.85 4.33024 14.11C4.17024 14.36 4.17024 14.69 4.33024 14.95C4.49024 15.2 4.78024 15.35 5.08024 15.31H12.9202C13.3192 15.27 13.6202 14.929 13.6202 14.53C13.6202 14.12 13.3192 13.78 12.9202 13.74H5.08024ZM12.9202 9.179H5.08024C4.64924 9.179 4.30024 9.53 4.30024 9.96C4.30024 10.39 4.64924 10.74 5.08024 10.74H12.9202C13.3502 10.74 13.7002 10.39 13.7002 9.96C13.7002 9.53 13.3502 9.179 12.9202 9.179ZM8.06924 4.65H5.08024V4.66C4.64924 4.66 4.30024 5.01 4.30024 5.44C4.30024 5.87 4.64924 6.22 5.08024 6.22H8.06924C8.50024 6.22 8.85024 5.87 8.85024 5.429C8.85024 5 8.50024 4.65 8.06924 4.65Z" fill="#D8F336"/>
</svg>
