<svg width="17" height="20" viewBox="0 0 17 20" fill="none" xmlns="http://www.w3.org/2000/svg">
<path d="M9.6519 17.085C10.1486 17.0997 10.6363 17.221 11.0815 17.4406H11.1084C11.4803 17.7445 11.5435 18.2868 11.2513 18.6673C10.7192 19.4297 9.86786 19.9104 8.93708 19.974C7.9808 20.0882 7.0178 19.8231 6.2565 19.2362C5.86497 18.9674 5.61053 18.5423 5.55955 18.0717C5.55955 17.5739 6.02418 17.3428 6.45307 17.245C6.95542 17.1391 7.46749 17.0855 7.981 17.085H9.6519ZM8.52606 0C11.6177 0 14.8076 2.24008 15.1382 5.48463C15.1918 6.15132 15.1382 6.84468 15.1918 7.52026C15.3672 8.39148 15.771 9.20107 16.3623 9.86701C16.7299 10.4143 16.9428 11.0498 16.9789 11.7071V11.9115C16.9843 12.7984 16.6669 13.6573 16.0853 14.3294C15.3481 15.1186 14.3479 15.6145 13.2707 15.725C10.0881 16.1339 6.86577 16.1339 3.68314 15.725C2.59324 15.6229 1.57894 15.1263 0.832784 14.3294C0.269394 13.6508 -0.0260409 12.7912 0.00180309 11.9115V11.7071C0.0366725 11.0523 0.243054 10.4179 0.600467 9.86701C1.19437 9.20046 1.6039 8.39176 1.78886 7.52026C1.84247 6.84468 1.78886 6.16021 1.84247 5.48463C2.18201 2.24008 5.30936 0 8.4367 0H8.52606Z" fill="#D8F336"/>
</svg>
