<svg width="25" height="28" viewBox="0 0 25 28" fill="none" xmlns="http://www.w3.org/2000/svg">
<path d="M14.478 23.919C15.1734 23.9396 15.8562 24.1094 16.4795 24.4168H16.517C17.0378 24.8422 17.1263 25.6016 16.7172 26.1342C15.9722 27.2016 14.7803 27.8746 13.4772 27.9636C12.1385 28.1235 10.7902 27.7524 9.72443 26.9307C9.17629 26.5544 8.82007 25.9592 8.74869 25.3004C8.74869 24.6035 9.39918 24.2799 9.99963 24.1431C10.7029 23.9947 11.4198 23.9197 12.1387 23.919H14.478ZM12.9018 0C17.2301 0 21.6959 3.13611 22.1588 7.67849C22.2338 8.61185 22.1588 9.58255 22.2338 10.5284C22.4794 11.7481 23.0448 12.8815 23.8725 13.8138C24.3872 14.58 24.6853 15.4697 24.7358 16.3899V16.6761C24.7434 17.9177 24.299 19.1202 23.4848 20.0611C22.4527 21.166 21.0524 21.8603 19.5443 22.015C15.0886 22.5874 10.5774 22.5874 6.12172 22.015C4.59586 21.8721 3.17585 21.1768 2.13123 20.0611C1.34248 19.1111 0.928875 17.9077 0.967856 16.6761V16.3899C1.01667 15.4732 1.30561 14.5851 1.80599 13.8138C2.63745 12.8806 3.21079 11.7485 3.46973 10.5284C3.54479 9.58255 3.46973 8.6243 3.54479 7.67849C4.02015 3.13611 8.39843 0 12.7767 0H12.9018Z" fill="#D8F336"/>
</svg>
