<svg width="29" height="29" viewBox="0 0 29 29" fill="none" xmlns="http://www.w3.org/2000/svg">
<path d="M20.6153 1.7998C20.5492 2.14001 20.5163 2.48583 20.517 2.83239C20.517 5.94178 23.0382 8.46244 26.1483 8.46244C26.4908 8.46075 26.8323 8.42783 27.1688 8.3641V19.5259C27.1688 24.2217 24.4023 26.9998 19.7055 26.9998H9.47564C4.76648 26.9998 2 24.2217 2 19.5259V9.29834C2 4.60254 4.76648 1.7998 9.47564 1.7998H20.6153ZM20.7843 10.1918L20.6203 10.202C20.3468 10.2414 20.1011 10.3899 19.9391 10.6137L16.5701 14.953L12.7339 11.929C12.5149 11.7581 12.2363 11.6827 11.961 11.7197C11.6857 11.7567 11.4369 11.9031 11.2708 12.1257L7.13951 17.4607C6.99429 17.6419 6.91611 17.8677 6.91819 18.0999L6.92182 18.2544C6.96186 18.6604 7.23999 19.0112 7.63834 19.1371C8.0865 19.2788 8.57379 19.1 8.82398 18.7022L12.279 14.2277L16.1152 17.2394C16.3334 17.4155 16.6138 17.4954 16.8921 17.4606C17.1704 17.4258 17.4225 17.2794 17.5907 17.055L21.5867 11.8921V11.8675C21.9288 11.4073 21.8415 10.7583 21.39 10.4047C21.1714 10.2358 20.8937 10.1626 20.6203 10.202L20.7843 10.1918Z" stroke="#AFCA0C" stroke-width="2.3"/>
</svg>
