<svg width="26" height="26" viewBox="0 0 26 26" fill="none" xmlns="http://www.w3.org/2000/svg">
<path d="M18.6153 0.799805C18.5492 1.14001 18.5163 1.48583 18.517 1.83239C18.517 4.94178 21.0382 7.46244 24.1483 7.46244C24.4908 7.46075 24.8323 7.42783 25.1688 7.3641V18.5259C25.1688 23.2217 22.4023 25.9998 17.7055 25.9998H7.47565C2.76648 25.9998 0 23.2217 0 18.5259V8.29834C0 3.60254 2.76648 0.799805 7.47565 0.799805H18.6153ZM18.7843 9.19176L18.6203 9.20203C18.3468 9.24141 18.1011 9.38993 17.9391 9.61366L14.5701 13.953L10.7339 10.929C10.5149 10.7581 10.2363 10.6827 9.961 10.7197C9.68568 10.7567 9.43689 10.9031 9.27078 11.1257L5.13951 16.4607C4.99429 16.6419 4.91611 16.8677 4.91819 17.0999L4.92182 17.2544C4.96186 17.6604 5.23999 18.0112 5.63834 18.1371C6.08649 18.2788 6.57379 18.1 6.82398 17.7022L10.279 13.2277L14.1152 16.2394C14.3334 16.4155 14.6138 16.4954 14.8921 16.4606C15.1704 16.4258 15.4225 16.2794 15.5907 16.055L19.5867 10.8921V10.8675C19.9288 10.4073 19.8415 9.75826 19.39 9.40468C19.1714 9.23576 18.8937 9.16264 18.6203 9.20203L18.7843 9.19176Z" fill="#D8F336"/>
</svg>
