<svg width="36" height="36" viewBox="0 0 36 36" fill="none" xmlns="http://www.w3.org/2000/svg">
<path d="M35.5733 24.0671H33.244V18.2439C33.244 14.2285 31.6489 10.3775 28.8096 7.53816C25.9702 4.69881 22.1192 3.10368 18.1038 3.10368C14.0883 3.10368 10.2374 4.69881 7.39802 7.53816C4.55867 10.3775 2.96355 14.2285 2.96355 18.2439V24.0671H0.634277V18.2439C0.634277 13.6107 2.47481 9.16728 5.75098 5.89112C9.02715 2.61495 13.4706 0.774414 18.1038 0.774414C22.737 0.774414 27.1804 2.61495 30.4566 5.89112C33.7328 9.16728 35.5733 13.6107 35.5733 18.2439V24.0671Z" fill="black"/>
<path d="M7.8897 31.0557H6.4572C5.69249 31.0557 4.93527 30.9051 4.22877 30.6124C3.52227 30.3198 2.88033 29.8909 2.3396 29.3501C1.24754 28.2581 0.634033 26.7769 0.634033 25.2325V22.9032C0.634033 21.3588 1.24754 19.8777 2.3396 18.7856C3.43166 17.6936 4.9128 17.0801 6.4572 17.0801H7.8897C8.43961 17.0892 8.96389 17.3141 9.34951 17.7063C9.73512 18.0985 9.95118 18.6264 9.95111 19.1764V28.9593C9.95118 29.5093 9.73512 30.0373 9.34951 30.4295C8.96389 30.8216 8.43961 31.0465 7.8897 31.0557ZM6.4572 19.4093C5.53056 19.4093 4.64188 19.7775 3.98664 20.4327C3.33141 21.0879 2.9633 21.9766 2.9633 22.9032V25.2325C2.9633 26.1592 3.33141 27.0478 3.98664 27.7031C4.64188 28.3583 5.53056 28.7264 6.4572 28.7264H7.62184V19.4093H6.4572ZM29.7499 31.0557H28.3523C27.7963 31.0557 27.2631 30.8348 26.87 30.4417C26.4769 30.0485 26.256 29.5153 26.256 28.9593V19.1764C26.256 18.6204 26.4769 18.0872 26.87 17.6941C27.2631 17.3009 27.7963 17.0801 28.3523 17.0801H29.7499C31.2943 17.0801 32.7754 17.6936 33.8675 18.7856C34.9595 19.8777 35.5731 21.3588 35.5731 22.9032V25.2325C35.5731 26.7769 34.9595 28.2581 33.8675 29.3501C32.7754 30.4422 31.2943 31.0557 29.7499 31.0557ZM28.5853 28.7264H29.7499C30.6765 28.7264 31.5652 28.3583 32.2205 27.7031C32.8757 27.0478 33.2438 26.1592 33.2438 25.2325V22.9032C33.2438 21.9766 32.8757 21.0879 32.2205 20.4327C31.5652 19.7775 30.6765 19.4093 29.7499 19.4093H28.5853V28.7264Z" fill="black"/>
<path d="M6.45712 18.2441H7.88962C8.13672 18.2441 8.37371 18.3423 8.54844 18.517C8.72317 18.6918 8.82133 18.9287 8.82133 19.1758V28.9588C8.82133 29.2059 8.72317 29.4429 8.54844 29.6176C8.37371 29.7923 8.13672 29.8905 7.88962 29.8905H6.45712C5.2216 29.8905 4.03668 29.3997 3.16304 28.526C2.28939 27.6524 1.79858 26.4675 1.79858 25.2319V22.9027C1.79858 21.6672 2.28939 20.4822 3.16304 19.6086C4.03668 18.735 5.2216 18.2441 6.45712 18.2441Z" fill="black"/>
<path d="M29.7499 29.8906H28.3523C28.1052 29.8906 27.8683 29.7925 27.6935 29.6177C27.5188 29.443 27.4206 29.206 27.4206 28.9589V19.176C27.4206 18.9289 27.5188 18.6919 27.6935 18.5172C27.8683 18.3424 28.1052 18.2443 28.3523 18.2443H29.7499C30.9854 18.2443 32.1703 18.7351 33.044 19.6087C33.9176 20.4824 34.4084 21.6673 34.4084 22.9028V25.2321C34.4084 26.4676 33.9176 27.6525 33.044 28.5262C32.1703 29.3998 30.9854 29.8906 29.7499 29.8906Z" fill="black"/>
<path d="M27.2927 35.7138H19.2684C18.9595 35.7138 18.6633 35.5911 18.4449 35.3727C18.2265 35.1543 18.1038 34.858 18.1038 34.5492C18.1038 34.2403 18.2265 33.9441 18.4449 33.7256C18.6633 33.5072 18.9595 33.3845 19.2684 33.3845H27.4208C27.7297 33.3845 28.0259 33.2618 28.2444 33.0434C28.4628 32.825 28.5855 32.5288 28.5855 32.2199V29.8906H30.9147V32.2199C30.9169 32.7912 30.7789 33.3542 30.5129 33.8598C30.247 34.3654 29.8611 34.798 29.3891 35.1198C28.7672 35.5269 28.0357 35.7342 27.2927 35.7138Z" fill="black"/>
</svg>
