<svg width="22" height="20" viewBox="0 0 22 20" fill="none" xmlns="http://www.w3.org/2000/svg">
<path fill-rule="evenodd" clip-rule="evenodd" d="M4.38732 0C1.96427 0 0 1.96427 0 4.38732V15.6127C0 18.0357 1.96427 20 4.38732 20H9.55634C11.9794 20 13.9437 18.0357 13.9437 15.6127V10.7587H18.8499C18.8671 10.7587 18.8842 10.7581 18.9012 10.757L17.2615 12.3967C16.9589 12.6992 16.9589 13.1897 17.2615 13.4922C17.564 13.7948 18.0545 13.7948 18.357 13.4922L21.2782 10.571C21.4349 10.4143 21.5104 10.2073 21.5048 10.002C21.5088 9.79869 21.4332 9.59411 21.2781 9.43896L18.3568 6.51772C18.0543 6.2152 17.5638 6.2152 17.2613 6.51772C16.9588 6.82024 16.9588 7.31072 17.2613 7.61324L18.8575 9.20939L18.8499 9.20936H13.9437V4.38732C13.9437 1.96427 11.9794 0 9.55634 0H4.38732ZM13.9437 9.20936H8.61512C8.18729 9.20936 7.84047 9.55618 7.84047 9.984C7.84047 10.4118 8.18729 10.7587 8.61512 10.7587H13.9437V9.20936ZM19.6245 9.97638L19.6531 10.005L19.6228 10.0353C19.6239 10.0184 19.6245 10.0013 19.6245 9.984L19.6245 9.97638Z" fill="#E80202"/>
</svg>
