<svg width="25" height="28" viewBox="0 0 25 28" fill="none" xmlns="http://www.w3.org/2000/svg">
<path d="M14.4624 24.919C14.9771 24.9361 15.4826 25.0562 15.9488 25.2715C15.989 25.3518 15.9818 25.45 15.9241 25.5251L15.9102 25.5432L15.8971 25.5619C15.3262 26.38 14.4113 26.8975 13.4091 26.966L13.3838 26.9677L13.3587 26.9707C12.2793 27.0996 11.193 26.8002 10.335 26.1387L10.3132 26.1219L10.2904 26.1063C10.0131 25.9159 9.82424 25.6269 9.75987 25.3035C9.76102 25.3026 9.76222 25.3016 9.76347 25.3007C9.83797 25.2426 9.98901 25.1719 10.2145 25.1197C10.8475 24.9869 11.4926 24.9196 12.1396 24.919H14.4624ZM21.2369 10.6075L21.2417 10.6671L21.2535 10.7258C21.5293 12.0953 22.1578 13.3691 23.0764 14.4227C23.4652 15.0207 23.6923 15.7082 23.7358 16.4188L23.7358 16.6761L23.7358 16.6822C23.7419 17.6746 23.389 18.6366 22.7408 19.3925C21.8755 20.3121 20.7043 20.8908 19.4423 21.0202L19.4296 21.0215L19.4169 21.0231C15.0458 21.5847 10.6202 21.5847 6.24915 21.0231L6.23209 21.0209L6.21497 21.0193C4.94168 20.9001 3.75703 20.3236 2.88186 19.3996C2.26096 18.6406 1.93643 17.6849 1.96736 16.7078L1.96786 16.6919V16.6761V16.4179C2.00987 15.7084 2.2297 15.0206 2.60738 14.417C3.52471 13.3663 4.15855 12.0996 4.44795 10.736L4.46145 10.6723L4.4666 10.6075C4.50728 10.0949 4.50727 9.58552 4.50726 9.12093V9.10342C4.50726 8.62542 4.50778 8.19297 4.54067 7.77017C4.95838 3.84988 8.79992 1 12.7767 1H12.9018C16.8386 1 20.7578 3.85829 21.1628 7.7693C21.1957 8.18584 21.1963 8.61804 21.1963 9.09876V9.11642C21.1963 9.5824 21.1963 10.0949 21.2369 10.6075Z" stroke="#AFCA0C" stroke-width="2"/>
</svg>
