<svg width="24" height="28" viewBox="0 0 24 28" fill="none" xmlns="http://www.w3.org/2000/svg">
<path d="M8.96396 17.8743C10.9727 17.7018 12.9923 17.7018 15.001 17.8743C16.0995 17.948 17.1905 18.1086 18.2639 18.3547C20.5859 18.8228 22.1013 19.7467 22.7367 21.1017C23.2445 22.2275 23.231 23.5222 22.7001 24.6371C22.0524 25.9921 20.537 26.916 18.1784 27.3964C17.1086 27.6375 16.0217 27.794 14.9277 27.8645C13.7178 28 12.6913 28 11.7381 28H11.3592C10.8192 27.9414 10.4098 27.4819 10.4098 26.9345C10.4098 26.387 10.8192 25.9275 11.3592 25.8689L12.1954 25.8687C13.0335 25.8589 13.8767 25.8196 14.7199 25.7457C15.7147 25.6805 16.7033 25.5405 17.6773 25.3269C19.3516 24.9573 20.4026 24.4277 20.7325 23.7255C20.9892 23.1884 20.9892 22.5627 20.7325 22.0256C20.4026 21.3111 19.3516 20.7568 17.714 20.4242C16.7248 20.2005 15.7196 20.0563 14.7077 19.993C12.8174 19.8205 10.9154 19.8205 9.02506 19.993C8.02625 20.0582 7.03363 20.1982 6.05542 20.4118C4.38118 20.7814 3.34241 21.3111 3.00023 22.0132C2.879 22.2799 2.81646 22.5699 2.81692 22.8632C2.81624 23.1605 2.87874 23.4546 3.00023 23.7255C3.58189 24.5263 4.46686 25.0481 5.44438 25.1668L5.5862 25.2053C5.90779 25.3171 6.16023 25.5793 6.25858 25.9138C6.37097 26.2961 6.26351 26.7097 5.97963 26.9874C5.69575 27.2651 5.2824 27.361 4.90667 27.2363C3.33113 26.9773 1.94927 26.0307 1.13046 24.6494C0.6043 23.5306 0.6043 22.2328 1.13046 21.114C1.77816 19.722 3.29353 18.8228 5.62769 18.3424C6.72666 18.1027 7.84185 17.9463 8.96396 17.8743ZM9.07611 0.57009C11.8587 -0.59034 15.0607 0.0537536 17.1883 2.20184C19.3159 4.34993 19.9496 7.57866 18.7938 10.3815C17.638 13.1844 14.9204 15.009 11.9092 15.0041C7.80359 14.9973 4.47894 11.6405 4.47894 7.50213L4.48585 7.17812C4.60979 4.27333 6.39294 1.68908 9.07611 0.57009ZM11.9092 2.1436C10.4971 2.14035 9.14185 2.70346 8.14226 3.70873C7.14266 4.714 6.5809 6.07883 6.5809 7.50213C6.57597 9.67555 7.87101 11.6377 9.86164 12.4729C11.8523 13.3081 14.1461 12.8516 15.6725 11.3166C17.1989 9.78149 17.657 7.47043 16.833 5.46198C16.009 3.45352 14.0653 2.1436 11.9092 2.1436Z" fill="#AFCA0C"/>
</svg>
